<mxfile host="app.diagrams.net" modified="2023-10-11T13:52:56.405Z" agent="Mozilla/5.0 (Windows NT 10.0; Win64; x64) AppleWebKit/537.36 (KHTML, like Gecko) Chrome/116.0.5845.967 YaBrowser/23.9.1.967 Yowser/2.5 Safari/537.36" etag="tJ_9ocG10bFOLJPycQNM" version="22.0.4" type="device">
  <diagram name="Страница — 1" id="iVAzjBKYkmoIFCFFRwwH">
    <mxGraphModel dx="1982" dy="659" grid="1" gridSize="10" guides="1" tooltips="1" connect="1" arrows="1" fold="1" page="1" pageScale="1" pageWidth="827" pageHeight="1169" math="0" shadow="0">
      <root>
        <mxCell id="0" />
        <mxCell id="1" parent="0" />
        <mxCell id="f7qZyiD9QZodtXLCO4V8-1" value="Зарегистрированный&lt;br&gt;пользователь" style="shape=umlActor;verticalLabelPosition=bottom;verticalAlign=top;html=1;outlineConnect=0;" vertex="1" parent="1">
          <mxGeometry x="230" y="490" width="30" height="60" as="geometry" />
        </mxCell>
        <mxCell id="f7qZyiD9QZodtXLCO4V8-2" value="Незарегистрированный&lt;br&gt;&amp;nbsp;пользователь" style="shape=umlActor;verticalLabelPosition=bottom;verticalAlign=top;html=1;outlineConnect=0;" vertex="1" parent="1">
          <mxGeometry x="383.5" y="490" width="30" height="60" as="geometry" />
        </mxCell>
        <mxCell id="f7qZyiD9QZodtXLCO4V8-3" value="Администратор" style="shape=umlActor;verticalLabelPosition=bottom;verticalAlign=top;html=1;outlineConnect=0;" vertex="1" parent="1">
          <mxGeometry x="530" y="670" width="30" height="60" as="geometry" />
        </mxCell>
        <mxCell id="f7qZyiD9QZodtXLCO4V8-4" value="Риелтор/Арендодатель" style="shape=umlActor;verticalLabelPosition=bottom;verticalAlign=top;html=1;outlineConnect=0;" vertex="1" parent="1">
          <mxGeometry x="230" y="640" width="30" height="60" as="geometry" />
        </mxCell>
        <mxCell id="f7qZyiD9QZodtXLCO4V8-7" value="Регистрация&amp;nbsp;" style="ellipse;whiteSpace=wrap;html=1;" vertex="1" parent="1">
          <mxGeometry x="380" y="400" width="130" height="30" as="geometry" />
        </mxCell>
        <mxCell id="f7qZyiD9QZodtXLCO4V8-9" value="Авторизация" style="ellipse;whiteSpace=wrap;html=1;" vertex="1" parent="1">
          <mxGeometry x="480" y="470" width="130" height="40" as="geometry" />
        </mxCell>
        <mxCell id="f7qZyiD9QZodtXLCO4V8-10" value="Редактирование профиля" style="ellipse;whiteSpace=wrap;html=1;" vertex="1" parent="1">
          <mxGeometry x="40" y="480" width="130" height="40" as="geometry" />
        </mxCell>
        <mxCell id="f7qZyiD9QZodtXLCO4V8-11" value="Просмотр объявлений" style="ellipse;whiteSpace=wrap;html=1;" vertex="1" parent="1">
          <mxGeometry x="253.5" y="415" width="130" height="40" as="geometry" />
        </mxCell>
        <mxCell id="f7qZyiD9QZodtXLCO4V8-12" value="Редактирование объявлений" style="ellipse;whiteSpace=wrap;html=1;" vertex="1" parent="1">
          <mxGeometry x="340" y="660" width="130" height="40" as="geometry" />
        </mxCell>
        <mxCell id="f7qZyiD9QZodtXLCO4V8-13" value="Удаление объявлений" style="ellipse;whiteSpace=wrap;html=1;" vertex="1" parent="1">
          <mxGeometry x="440" y="590" width="130" height="40" as="geometry" />
        </mxCell>
        <mxCell id="f7qZyiD9QZodtXLCO4V8-14" value="Изменение данных" style="ellipse;whiteSpace=wrap;html=1;" vertex="1" parent="1">
          <mxGeometry x="333.5" y="750" width="130" height="40" as="geometry" />
        </mxCell>
        <mxCell id="f7qZyiD9QZodtXLCO4V8-15" value="Создание объявлений" style="ellipse;whiteSpace=wrap;html=1;" vertex="1" parent="1">
          <mxGeometry x="40" y="610" width="130" height="40" as="geometry" />
        </mxCell>
        <mxCell id="f7qZyiD9QZodtXLCO4V8-17" value="" style="endArrow=none;html=1;rounded=0;exitX=0.75;exitY=0.1;exitDx=0;exitDy=0;exitPerimeter=0;" edge="1" parent="1" source="f7qZyiD9QZodtXLCO4V8-2" target="f7qZyiD9QZodtXLCO4V8-7">
          <mxGeometry width="50" height="50" relative="1" as="geometry">
            <mxPoint x="180" y="630" as="sourcePoint" />
            <mxPoint x="230" y="580" as="targetPoint" />
          </mxGeometry>
        </mxCell>
        <mxCell id="f7qZyiD9QZodtXLCO4V8-18" value="" style="endArrow=none;html=1;rounded=0;exitX=0.75;exitY=0.1;exitDx=0;exitDy=0;exitPerimeter=0;" edge="1" parent="1" source="f7qZyiD9QZodtXLCO4V8-2" target="f7qZyiD9QZodtXLCO4V8-9">
          <mxGeometry width="50" height="50" relative="1" as="geometry">
            <mxPoint x="416" y="506" as="sourcePoint" />
            <mxPoint x="448" y="440" as="targetPoint" />
          </mxGeometry>
        </mxCell>
        <mxCell id="f7qZyiD9QZodtXLCO4V8-19" value="" style="endArrow=none;html=1;rounded=0;exitX=0.25;exitY=0.1;exitDx=0;exitDy=0;exitPerimeter=0;" edge="1" parent="1" source="f7qZyiD9QZodtXLCO4V8-2" target="f7qZyiD9QZodtXLCO4V8-11">
          <mxGeometry width="50" height="50" relative="1" as="geometry">
            <mxPoint x="426" y="516" as="sourcePoint" />
            <mxPoint x="458" y="450" as="targetPoint" />
          </mxGeometry>
        </mxCell>
        <mxCell id="f7qZyiD9QZodtXLCO4V8-20" value="" style="endArrow=block;html=1;rounded=0;endFill=0;" edge="1" parent="1" source="f7qZyiD9QZodtXLCO4V8-2" target="f7qZyiD9QZodtXLCO4V8-1">
          <mxGeometry width="50" height="50" relative="1" as="geometry">
            <mxPoint x="160" y="670" as="sourcePoint" />
            <mxPoint x="210" y="620" as="targetPoint" />
          </mxGeometry>
        </mxCell>
        <mxCell id="f7qZyiD9QZodtXLCO4V8-21" value="" style="endArrow=none;html=1;rounded=0;entryX=1;entryY=0.5;entryDx=0;entryDy=0;" edge="1" parent="1" source="f7qZyiD9QZodtXLCO4V8-1" target="f7qZyiD9QZodtXLCO4V8-10">
          <mxGeometry width="50" height="50" relative="1" as="geometry">
            <mxPoint x="401" y="506" as="sourcePoint" />
            <mxPoint x="333" y="463" as="targetPoint" />
          </mxGeometry>
        </mxCell>
        <mxCell id="f7qZyiD9QZodtXLCO4V8-22" value="" style="endArrow=block;html=1;rounded=0;endFill=0;" edge="1" parent="1" target="f7qZyiD9QZodtXLCO4V8-4">
          <mxGeometry width="50" height="50" relative="1" as="geometry">
            <mxPoint x="250" y="590" as="sourcePoint" />
            <mxPoint x="270" y="530" as="targetPoint" />
          </mxGeometry>
        </mxCell>
        <mxCell id="f7qZyiD9QZodtXLCO4V8-23" value="" style="endArrow=none;html=1;rounded=0;entryX=1;entryY=0.5;entryDx=0;entryDy=0;exitX=0.25;exitY=0.1;exitDx=0;exitDy=0;exitPerimeter=0;" edge="1" parent="1" source="f7qZyiD9QZodtXLCO4V8-4" target="f7qZyiD9QZodtXLCO4V8-15">
          <mxGeometry width="50" height="50" relative="1" as="geometry">
            <mxPoint x="240" y="528" as="sourcePoint" />
            <mxPoint x="180" y="520" as="targetPoint" />
          </mxGeometry>
        </mxCell>
        <mxCell id="f7qZyiD9QZodtXLCO4V8-24" value="" style="endArrow=none;html=1;rounded=0;entryX=0;entryY=0.5;entryDx=0;entryDy=0;exitX=0.75;exitY=0.1;exitDx=0;exitDy=0;exitPerimeter=0;" edge="1" parent="1" source="f7qZyiD9QZodtXLCO4V8-4" target="f7qZyiD9QZodtXLCO4V8-12">
          <mxGeometry width="50" height="50" relative="1" as="geometry">
            <mxPoint x="248" y="656" as="sourcePoint" />
            <mxPoint x="180" y="640" as="targetPoint" />
          </mxGeometry>
        </mxCell>
        <mxCell id="f7qZyiD9QZodtXLCO4V8-28" value="" style="endArrow=none;html=1;rounded=0;entryX=1;entryY=1;entryDx=0;entryDy=0;" edge="1" parent="1" source="f7qZyiD9QZodtXLCO4V8-3" target="f7qZyiD9QZodtXLCO4V8-12">
          <mxGeometry width="50" height="50" relative="1" as="geometry">
            <mxPoint x="550" y="840" as="sourcePoint" />
            <mxPoint x="600" y="790" as="targetPoint" />
          </mxGeometry>
        </mxCell>
        <mxCell id="f7qZyiD9QZodtXLCO4V8-31" value="" style="endArrow=classic;html=1;rounded=0;dashed=1;entryX=0.094;entryY=0.275;entryDx=0;entryDy=0;entryPerimeter=0;" edge="1" parent="1" source="f7qZyiD9QZodtXLCO4V8-44" target="f7qZyiD9QZodtXLCO4V8-10">
          <mxGeometry width="50" height="50" relative="1" as="geometry">
            <mxPoint y="490" as="sourcePoint" />
            <mxPoint x="330" y="840" as="targetPoint" />
          </mxGeometry>
        </mxCell>
        <mxCell id="f7qZyiD9QZodtXLCO4V8-48" value="include" style="edgeLabel;html=1;align=center;verticalAlign=middle;resizable=0;points=[];" vertex="1" connectable="0" parent="f7qZyiD9QZodtXLCO4V8-31">
          <mxGeometry x="-0.0829" y="-6" relative="1" as="geometry">
            <mxPoint as="offset" />
          </mxGeometry>
        </mxCell>
        <mxCell id="f7qZyiD9QZodtXLCO4V8-32" value="" style="endArrow=classic;html=1;rounded=0;dashed=1;" edge="1" parent="1" source="f7qZyiD9QZodtXLCO4V8-13" target="f7qZyiD9QZodtXLCO4V8-12">
          <mxGeometry width="50" height="50" relative="1" as="geometry">
            <mxPoint x="407" y="760" as="sourcePoint" />
            <mxPoint x="403" y="708" as="targetPoint" />
          </mxGeometry>
        </mxCell>
        <mxCell id="f7qZyiD9QZodtXLCO4V8-33" value="extend" style="text;html=1;strokeColor=none;fillColor=none;align=center;verticalAlign=middle;whiteSpace=wrap;rounded=0;" vertex="1" parent="1">
          <mxGeometry x="450" y="640" width="50" height="20" as="geometry" />
        </mxCell>
        <mxCell id="f7qZyiD9QZodtXLCO4V8-35" value="extend" style="text;html=1;strokeColor=none;fillColor=none;align=center;verticalAlign=middle;whiteSpace=wrap;rounded=0;" vertex="1" parent="1">
          <mxGeometry x="383.5" y="720" width="40" height="20" as="geometry" />
        </mxCell>
        <mxCell id="f7qZyiD9QZodtXLCO4V8-37" value="Связаться с пользователем" style="ellipse;whiteSpace=wrap;html=1;" vertex="1" parent="1">
          <mxGeometry x="80" y="415" width="130" height="40" as="geometry" />
        </mxCell>
        <mxCell id="f7qZyiD9QZodtXLCO4V8-39" value="" style="endArrow=none;html=1;rounded=0;" edge="1" parent="1" source="f7qZyiD9QZodtXLCO4V8-1" target="f7qZyiD9QZodtXLCO4V8-37">
          <mxGeometry width="50" height="50" relative="1" as="geometry">
            <mxPoint x="240" y="526" as="sourcePoint" />
            <mxPoint x="180" y="510" as="targetPoint" />
          </mxGeometry>
        </mxCell>
        <mxCell id="f7qZyiD9QZodtXLCO4V8-40" value="Просмотр информации о сделках" style="ellipse;whiteSpace=wrap;html=1;" vertex="1" parent="1">
          <mxGeometry x="30" y="730" width="140" height="50" as="geometry" />
        </mxCell>
        <mxCell id="f7qZyiD9QZodtXLCO4V8-41" value="" style="endArrow=none;html=1;rounded=0;entryX=0.585;entryY=0.025;entryDx=0;entryDy=0;entryPerimeter=0;" edge="1" parent="1" source="f7qZyiD9QZodtXLCO4V8-4" target="f7qZyiD9QZodtXLCO4V8-40">
          <mxGeometry width="50" height="50" relative="1" as="geometry">
            <mxPoint x="390" y="640" as="sourcePoint" />
            <mxPoint x="440" y="590" as="targetPoint" />
          </mxGeometry>
        </mxCell>
        <mxCell id="f7qZyiD9QZodtXLCO4V8-42" value="Просмотр данных других пользователей" style="ellipse;whiteSpace=wrap;html=1;" vertex="1" parent="1">
          <mxGeometry x="620" y="675" width="140" height="50" as="geometry" />
        </mxCell>
        <mxCell id="f7qZyiD9QZodtXLCO4V8-43" value="" style="endArrow=none;html=1;rounded=0;entryX=0;entryY=0.5;entryDx=0;entryDy=0;exitX=0.5;exitY=0.5;exitDx=0;exitDy=0;exitPerimeter=0;" edge="1" parent="1" source="f7qZyiD9QZodtXLCO4V8-3" target="f7qZyiD9QZodtXLCO4V8-42">
          <mxGeometry width="50" height="50" relative="1" as="geometry">
            <mxPoint x="540" y="709" as="sourcePoint" />
            <mxPoint x="461" y="704" as="targetPoint" />
          </mxGeometry>
        </mxCell>
        <mxCell id="f7qZyiD9QZodtXLCO4V8-44" value="Изменить препдочтения" style="ellipse;whiteSpace=wrap;html=1;" vertex="1" parent="1">
          <mxGeometry x="-110" y="420" width="130" height="40" as="geometry" />
        </mxCell>
        <mxCell id="f7qZyiD9QZodtXLCO4V8-46" value="" style="endArrow=classic;html=1;rounded=0;entryX=0.408;entryY=0.95;entryDx=0;entryDy=0;entryPerimeter=0;dashed=1;" edge="1" parent="1">
          <mxGeometry width="50" height="50" relative="1" as="geometry">
            <mxPoint x="407" y="760" as="sourcePoint" />
            <mxPoint x="403" y="708" as="targetPoint" />
          </mxGeometry>
        </mxCell>
        <mxCell id="f7qZyiD9QZodtXLCO4V8-50" value="Добавить объявление в избранное" style="ellipse;whiteSpace=wrap;html=1;" vertex="1" parent="1">
          <mxGeometry x="140" y="340" width="150" height="60" as="geometry" />
        </mxCell>
        <mxCell id="f7qZyiD9QZodtXLCO4V8-51" value="" style="endArrow=none;html=1;rounded=0;exitX=0.25;exitY=0.1;exitDx=0;exitDy=0;exitPerimeter=0;entryX=0.5;entryY=1;entryDx=0;entryDy=0;" edge="1" parent="1" source="f7qZyiD9QZodtXLCO4V8-1" target="f7qZyiD9QZodtXLCO4V8-50">
          <mxGeometry width="50" height="50" relative="1" as="geometry">
            <mxPoint x="240" y="517" as="sourcePoint" />
            <mxPoint x="177" y="464" as="targetPoint" />
          </mxGeometry>
        </mxCell>
        <mxCell id="f7qZyiD9QZodtXLCO4V8-53" value="Настройка фильтров" style="ellipse;whiteSpace=wrap;html=1;" vertex="1" parent="1">
          <mxGeometry x="310" y="340" width="130" height="40" as="geometry" />
        </mxCell>
        <mxCell id="f7qZyiD9QZodtXLCO4V8-55" value="" style="endArrow=classic;html=1;rounded=0;dashed=1;exitX=0.215;exitY=0.879;exitDx=0;exitDy=0;exitPerimeter=0;" edge="1" parent="1" source="f7qZyiD9QZodtXLCO4V8-53" target="f7qZyiD9QZodtXLCO4V8-11">
          <mxGeometry width="50" height="50" relative="1" as="geometry">
            <mxPoint x="75" y="494" as="sourcePoint" />
            <mxPoint x="360" y="400" as="targetPoint" />
          </mxGeometry>
        </mxCell>
        <mxCell id="f7qZyiD9QZodtXLCO4V8-56" value="include" style="edgeLabel;html=1;align=center;verticalAlign=middle;resizable=0;points=[];" vertex="1" connectable="0" parent="f7qZyiD9QZodtXLCO4V8-55">
          <mxGeometry x="-0.0829" y="-6" relative="1" as="geometry">
            <mxPoint as="offset" />
          </mxGeometry>
        </mxCell>
        <mxCell id="f7qZyiD9QZodtXLCO4V8-57" value="Восстановление данных других пользователей" style="ellipse;whiteSpace=wrap;html=1;" vertex="1" parent="1">
          <mxGeometry x="610" y="605" width="150" height="55" as="geometry" />
        </mxCell>
        <mxCell id="f7qZyiD9QZodtXLCO4V8-58" value="" style="endArrow=none;html=1;rounded=0;" edge="1" parent="1" source="f7qZyiD9QZodtXLCO4V8-3" target="f7qZyiD9QZodtXLCO4V8-57">
          <mxGeometry width="50" height="50" relative="1" as="geometry">
            <mxPoint x="555" y="710" as="sourcePoint" />
            <mxPoint x="630" y="710" as="targetPoint" />
          </mxGeometry>
        </mxCell>
      </root>
    </mxGraphModel>
  </diagram>
</mxfile>
